<svg width="290" height="108" viewBox="0 0 290 108" fill="none" xmlns="http://www.w3.org/2000/svg">
<path d="M124.536 72.5H125.826C128.166 72.5 129.966 73.12 131.226 74.36C132.506 75.6 133.146 77.37 133.146 79.67C133.146 80.99 132.826 82.2 132.186 83.3C131.566 84.4 130.716 85.27 129.636 85.91C128.556 86.53 127.366 86.84 126.066 86.84H125.856L133.596 95H132.306L125.496 87.86V95H124.536V72.5ZM126.036 85.97C127.176 85.97 128.216 85.69 129.156 85.13C130.096 84.57 130.836 83.82 131.376 82.88C131.916 81.92 132.186 80.86 132.186 79.7C132.186 77.68 131.636 76.12 130.536 75.02C129.456 73.92 127.906 73.37 125.886 73.37H125.496V85.97H126.036ZM136.929 72.5H144.999V73.37H137.919V85.61H143.829V86.48H137.919V94.13H144.999V95H136.929V72.5ZM152.859 95.42C150.359 95.42 148.419 94.39 147.039 92.33V90.71C147.579 91.91 148.359 92.85 149.379 93.53C150.419 94.21 151.659 94.55 153.099 94.55C154.099 94.55 155.019 94.33 155.859 93.89C156.719 93.45 157.399 92.83 157.899 92.03C158.399 91.23 158.649 90.31 158.649 89.27C158.649 88.33 158.489 87.52 158.169 86.84C157.849 86.16 157.319 85.51 156.579 84.89C155.839 84.25 154.769 83.5 153.369 82.64L152.409 82.04C151.529 81.5 150.819 81.02 150.279 80.6C149.739 80.18 149.269 79.69 148.869 79.13C148.349 78.35 148.089 77.45 148.089 76.43C148.089 75.07 148.529 74.01 149.409 73.25C150.289 72.49 151.409 72.11 152.769 72.11C154.609 72.11 156.069 72.79 157.149 74.15V75.68C156.689 74.84 156.059 74.18 155.259 73.7C154.459 73.22 153.579 72.98 152.619 72.98C151.619 72.98 150.779 73.29 150.099 73.91C149.419 74.53 149.079 75.36 149.079 76.4C149.079 77.42 149.389 78.3 150.009 79.04C150.649 79.76 151.719 80.55 153.219 81.41C155.059 82.49 156.489 83.47 157.509 84.35C158.229 85.01 158.749 85.74 159.069 86.54C159.409 87.34 159.579 88.23 159.579 89.21C159.579 90.45 159.289 91.54 158.709 92.48C158.129 93.42 157.329 94.15 156.309 94.67C155.289 95.17 154.139 95.42 152.859 95.42ZM164.871 73.37H159.681V72.5H170.991V73.37H165.861V95H164.871V73.37ZM192.764 95H191.714L187.454 86.42H175.514L171.344 95H170.294L181.514 71.96L192.764 95ZM187.094 85.55L181.454 74.12L175.934 85.55H187.094ZM201.247 95.6C199.947 95.6 198.787 95.33 197.767 94.79C196.747 94.23 195.947 93.44 195.367 92.42C194.787 91.4 194.497 90.21 194.497 88.85V72.5H195.487V88.82C195.487 90.02 195.737 91.07 196.237 91.97C196.737 92.85 197.417 93.53 198.277 94.01C199.157 94.49 200.137 94.73 201.217 94.73C202.297 94.73 203.267 94.5 204.127 94.04C205.007 93.56 205.687 92.88 206.167 92C206.667 91.1 206.917 90.04 206.917 88.82V72.5H207.907V88.79C207.907 90.17 207.627 91.38 207.067 92.42C206.507 93.44 205.717 94.23 204.697 94.79C203.697 95.33 202.547 95.6 201.247 95.6ZM212.661 72.5H213.951C216.291 72.5 218.091 73.12 219.351 74.36C220.631 75.6 221.271 77.37 221.271 79.67C221.271 80.99 220.951 82.2 220.311 83.3C219.691 84.4 218.841 85.27 217.761 85.91C216.681 86.53 215.491 86.84 214.191 86.84H213.981L221.721 95H220.431L213.621 87.86V95H212.661V72.5ZM214.161 85.97C215.301 85.97 216.341 85.69 217.281 85.13C218.221 84.57 218.961 83.82 219.501 82.88C220.041 81.92 220.311 80.86 220.311 79.7C220.311 77.68 219.761 76.12 218.661 75.02C217.581 73.92 216.031 73.37 214.011 73.37H213.621V85.97H214.161ZM246.114 95H245.064L240.804 86.42H228.864L224.694 95H223.644L234.864 71.96L246.114 95ZM240.444 85.55L234.804 74.12L229.284 85.55H240.444ZM250.328 74.75V95H249.458V72.17L266.018 92.72V72.5H266.888V95.33L250.328 74.75ZM275.086 73.37H269.896V72.5H281.206V73.37H276.076V95H275.086V73.37Z" fill="black" fill-opacity="0.82"/>
<path d="M40.6484 38.9297C40.8828 38.9297 41 39.0625 41 39.3281C41 39.4219 40.9609 39.5078 40.8828 39.5859C39.5703 40.8984 38.0547 41.5547 36.3359 41.5547C35.9297 41.5547 35.4766 41.3281 34.9766 40.875C34.4766 40.4062 34.2266 39.7344 34.2266 38.8594C34.2266 37.9844 34.7578 37.0156 35.8203 35.9531C36.8828 34.875 38.3594 33.8594 40.25 32.9062C42.1562 31.9375 44.5312 31.0781 47.375 30.3281C50.2188 29.5781 52.7734 29.2031 55.0391 29.2031C57.3047 29.2031 59.1641 29.3906 60.6172 29.7656C62.0703 30.125 63.2031 30.5781 64.0156 31.125C64.8438 31.6562 65.5234 32.2578 66.0547 32.9297C66.9453 34.0547 67.3906 35.2031 67.3906 36.375C67.3906 37.5312 67.0156 38.7266 66.2656 39.9609C65.5156 41.1953 64.5391 42.2969 63.3359 43.2656C62.1484 44.2188 60.7812 45.1094 59.2344 45.9375C56.3438 47.4688 53.25 48.5938 49.9531 49.3125C50.5156 49.8906 51.7031 51.3438 53.5156 53.6719C55.3438 55.9844 57.0078 57.9219 58.5078 59.4844C60.0234 61.0469 61.1953 61.8281 62.0234 61.8281L62.7969 61.5469C62.9688 61.5469 63.0547 61.6172 63.0547 61.7578C63.0547 61.8828 62.7656 62.2656 62.1875 62.9062C61.625 63.5312 61.1328 64.0078 60.7109 64.3359C60.2891 64.6641 59.7109 64.8281 58.9766 64.8281C58.2578 64.8281 57.4375 64.4766 56.5156 63.7734C55.5938 63.0703 54.5859 62.0781 53.4922 60.7969C52.3984 59.5156 51.4141 58.3125 50.5391 57.1875C49.6641 56.0469 48.6641 54.7109 47.5391 53.1797C46.4141 51.6328 45.6406 50.5859 45.2188 50.0391C45.0625 50.2891 44.6641 50.9141 44.0234 51.9141C43.3828 52.8984 42.9141 53.625 42.6172 54.0938C42.3203 54.5625 41.8906 55.25 41.3281 56.1562C40.7656 57.0469 40.3281 57.7656 40.0156 58.3125C39.1562 59.7656 38.5547 60.8516 38.2109 61.5703C37.8828 62.2891 37.3359 62.6484 36.5703 62.6484L35.75 62.625L35.0469 62.6484C34.0781 62.6484 33.5938 62.2422 33.5938 61.4297C33.5938 60.8203 33.8516 59.9531 34.3672 58.8281C34.8984 57.6875 37.6797 53.4609 42.7109 46.1484C47.7422 38.8203 50.5156 34.9141 51.0312 34.4297C51.5469 33.9297 51.9297 33.6484 52.1797 33.5859C52.3672 33.4453 52.4922 33.375 52.5547 33.375L52.9766 33.4453L53.375 33.375C53.5156 33.375 53.6406 33.4375 53.75 33.5625C53.8594 33.6719 53.9375 33.7422 53.9844 33.7734C54.6406 34.2578 54.9688 34.6641 54.9688 34.9922C54.9688 35.3203 54.8828 35.6406 54.7109 35.9531C54.5547 36.25 54.1094 36.9297 53.375 37.9922C52.6406 39.0547 51.6719 40.4375 50.4688 42.1406C49.2812 43.8281 48.4219 45.0547 47.8906 45.8203C49.1719 45.7578 50.7109 45.3672 52.5078 44.6484C54.3047 43.9297 55.9844 43.0703 57.5469 42.0703C59.125 41.0547 60.4688 39.9609 61.5781 38.7891C62.7031 37.6016 63.2656 36.5703 63.2656 35.6953C63.2656 35.2266 63.0234 34.8047 62.5391 34.4297C62.0547 34.0391 61.4453 33.7344 60.7109 33.5156C59.2422 33.0781 57.5859 32.8594 55.7422 32.8594C53.8984 32.8594 51.5625 33.2578 48.7344 34.0547C45.9062 34.8516 43.8438 35.6172 42.5469 36.3516C41.25 37.0703 40.3125 37.6875 39.7344 38.2031C39.1562 38.7031 38.8672 39.0547 38.8672 39.2578C38.8672 39.3672 39.0234 39.4219 39.3359 39.4219C39.6641 39.4219 39.9531 39.3438 40.2031 39.1875C40.4531 39.0156 40.6016 38.9297 40.6484 38.9297ZM82.1328 55.6406C82.4297 55.6406 82.6094 55.8672 82.6719 56.3203C82.7344 56.7734 82.7656 57.2422 82.7656 57.7266C82.7656 58.2109 82.7188 58.5469 82.625 58.7344C82.1719 59.6094 81.1797 60.6797 79.6484 61.9453C78.1172 63.1953 76.6641 63.8203 75.2891 63.8203C74.4453 63.8203 73.6641 63.5625 72.9453 63.0469C72.2266 62.5469 71.8672 61.6641 71.8672 60.3984C71.8672 59.1328 72.2031 57.8906 72.875 56.6719C69 61.5312 65.9609 63.9609 63.7578 63.9609C62.8828 63.9609 62.1719 63.6484 61.625 63.0234C61.0938 62.3984 60.8281 61.7578 60.8281 61.1016C60.8281 60.4297 60.9219 59.7422 61.1094 59.0391C61.2969 58.3203 61.4922 57.6797 61.6953 57.1172C61.9141 56.5547 62.2266 55.8594 62.6328 55.0312C63.0547 54.2031 63.3672 53.6016 63.5703 53.2266C63.7734 52.8516 64.0938 52.2891 64.5312 51.5391C64.9844 50.7734 65.5703 49.75 66.2891 48.4688C67.0234 47.1875 67.625 46.2422 68.0938 45.6328C68.5781 45.0078 69.0469 44.6953 69.5 44.6953C69.9531 44.6797 70.3516 44.8594 70.6953 45.2344C71.0391 45.6094 71.2109 45.9141 71.2109 46.1484C71.2109 46.3828 70.6875 47.4375 69.6406 49.3125C66.5469 54.9062 65 58.1641 65 59.0859C65 59.3203 65.0859 59.4375 65.2578 59.4375C66.0078 59.4375 67.875 57.8125 70.8594 54.5625C73.8438 51.3125 75.5703 49.2344 76.0391 48.3281C76.5078 47.4062 76.9609 46.6328 77.3984 46.0078C77.8516 45.3828 78.1875 45 78.4062 44.8594C79.0781 44.4219 79.9453 44.1875 81.0078 44.1562C81.1797 44.1562 81.3125 44.1641 81.4062 44.1797C81.5 44.1953 81.6094 44.3281 81.7344 44.5781C81.8594 44.8281 81.9219 45.0234 81.9219 45.1641C81.7812 45.6016 81.1562 46.7656 80.0469 48.6562C78.9531 50.5469 78.3438 51.6172 78.2188 51.8672C76.375 55.6797 75.4531 58.1641 75.4531 59.3203C75.4531 59.9766 75.7031 60.3047 76.2031 60.3047C77.1094 60.1797 78.2031 59.4531 79.4844 58.125C79.9531 57.6406 80.4141 57.1484 80.8672 56.6484C81.3359 56.1484 81.625 55.8594 81.7344 55.7812C81.8438 55.6875 81.9766 55.6406 82.1328 55.6406ZM83.8438 58.3125L83.8203 58.6875C83.8203 59.0781 83.9688 59.4141 84.2656 59.6953C84.5625 59.9766 84.8359 60.1172 85.0859 60.1172C86.9609 60.1172 88.6172 59.8359 90.0547 59.2734C91.5078 58.7109 92.2344 58.1484 92.2344 57.5859C92.2344 57.3203 91.9688 57.0938 91.4375 56.9062C90.9219 56.7031 90.0391 56.4609 88.7891 56.1797C87.5547 55.8828 86.6562 55.6562 86.0938 55.5C85.5312 55.3281 85.0859 55.1719 84.7578 55.0312C84.4297 54.8906 84.0938 54.6953 83.75 54.4453C83.0156 53.9297 82.6484 53.1641 82.6484 52.1484C82.6484 51.1172 83.0234 50.1016 83.7734 49.1016C84.5391 48.0859 85.4922 47.2188 86.6328 46.5C87.7734 45.7812 89 45.1484 90.3125 44.6016C92.9062 43.5234 95.0859 42.9844 96.8516 42.9844C98.5859 42.9844 99.6562 43.3594 100.062 44.1094C100.188 44.375 100.25 44.6719 100.25 45V45.1641C100.25 45.9922 100.07 46.6406 99.7109 47.1094C99.3672 47.5781 98.8125 48 98.0469 48.375C97.2969 48.75 96.6953 48.9375 96.2422 48.9375C95.8047 48.9375 95.5234 48.9062 95.3984 48.8438C95.2891 48.7812 95.1953 48.7031 95.1172 48.6094C95.0391 48.5 94.9375 48.4219 94.8125 48.375C94.7031 48.3281 94.6484 48.2109 94.6484 48.0234C94.6484 47.8359 94.7266 47.6484 94.8828 47.4609C95.0391 47.2578 95.1484 47.0469 95.2109 46.8281C94.1797 46.875 93.1016 47.1172 91.9766 47.5547C90.8516 47.9766 89.8828 48.4531 89.0703 48.9844C88.2734 49.5156 87.6094 50.0234 87.0781 50.5078C86.5469 50.9922 86.2812 51.3516 86.2812 51.5859C86.2812 51.8047 86.6406 51.9844 87.3594 52.125C90.5938 52.7656 92.7188 53.3203 93.7344 53.7891C94.75 54.2578 95.4531 54.7891 95.8438 55.3828C96.2344 55.9766 96.4297 56.5156 96.4297 57C96.4297 58 96.0312 58.9453 95.2344 59.8359C94.4375 60.7266 93.4531 61.4531 92.2812 62.0156C89.7656 63.25 87.5703 63.8672 85.6953 63.8672C83.8359 63.8672 82.5469 63.5781 81.8281 63C81.125 62.4375 80.7734 61.7656 80.7734 60.9844C80.7734 60.2031 80.9688 59.4844 81.3594 58.8281C81.7656 58.1562 82.2812 57.8203 82.9062 57.8203C83.5312 57.8203 83.8438 57.9844 83.8438 58.3125ZM115.062 32.8125L116.023 33.0469C116.164 33.0469 116.289 33.1172 116.398 33.2578C116.508 33.3984 116.562 33.5312 116.562 33.6562C116.562 33.7812 116.398 34.1172 116.07 34.6641C115.742 35.2109 115.352 35.8359 114.898 36.5391C114.461 37.2266 114.227 37.6016 114.195 37.6641C115.414 37.5703 116.273 37.5234 116.773 37.5234C117.289 37.5234 117.641 37.5625 117.828 37.6406C118.016 37.7031 118.227 37.8984 118.461 38.2266C118.711 38.5391 118.938 38.7812 119.141 38.9531C119.344 39.1094 119.445 39.3516 119.445 39.6797C119.445 40.0078 119.242 40.2891 118.836 40.5234C118.445 40.7422 118.023 40.875 117.57 40.9219C113.945 41.2812 111.945 41.4688 111.57 41.4844C110.305 43.4219 108.531 46.4453 106.25 50.5547C103.984 54.6484 102.781 57.2109 102.641 58.2422C102.578 58.7109 102.547 59.0938 102.547 59.3906C102.547 60 102.867 60.3047 103.508 60.3047C104.148 60.3047 104.859 60.0625 105.641 59.5781C106.422 59.0781 107.141 58.5391 107.797 57.9609C109.547 56.3984 110.484 55.6172 110.609 55.6172C111.016 55.6172 111.219 56.3203 111.219 57.7266C111.219 58.4922 110.867 59.1797 110.164 59.7891C108.586 61.1484 107.258 62.1719 106.18 62.8594C105.102 63.5469 104.023 63.8906 102.945 63.8906C102.711 63.8906 102.492 63.8672 102.289 63.8203C101.039 63.5859 100.117 63.1328 99.5234 62.4609C98.9453 61.7734 98.6562 60.8516 98.6562 59.6953C98.6719 58.5391 99.0156 57.1406 99.6875 55.5C100.375 53.8438 101.234 52.0859 102.266 50.2266C103.953 47.1953 105.641 44.3516 107.328 41.6953L106.438 41.8125C104.625 42.0156 103.57 42.1172 103.273 42.1172H103.062C102.609 42.1172 102.172 42.0312 101.75 41.8594C101.328 41.6719 101.117 41.4453 101.117 41.1797C101.117 40.9141 101.227 40.6562 101.445 40.4062C101.68 40.1562 101.82 39.9609 101.867 39.8203C101.977 39.4766 102.383 39.0938 103.086 38.6719C103.805 38.25 104.344 38.0312 104.703 38.0156C105.062 37.9844 105.406 37.9609 105.734 37.9453C106.078 37.9297 106.453 37.9141 106.859 37.8984C107.281 37.8828 107.602 37.8672 107.82 37.8516L109.93 37.7578C111.242 35.7891 112.141 34.5234 112.625 33.9609C113.125 33.3984 113.414 33.0938 113.492 33.0469C113.57 32.9844 113.727 32.9531 113.961 32.9531L115.062 32.8125ZM116.352 70.7812C116.273 70.8594 116.031 71.25 115.625 71.9531C115.234 72.6719 114.812 73.3906 114.359 74.1094C113.906 74.8438 113.344 75.5391 112.672 76.1953C112.016 76.8516 111.461 77.2031 111.008 77.25C110.57 77.3125 110.289 77.3438 110.164 77.3438C108.727 77.3438 108.008 76.6172 108.008 75.1641C108.008 73.4609 108.891 71.4688 110.656 69.1875C111.328 68.3281 112.172 67.3984 113.188 66.3984C114.203 65.4141 114.758 64.8516 114.852 64.7109C114.945 64.5859 116.117 62.3984 118.367 58.1484C116.867 59.7891 115.477 61.125 114.195 62.1562C112.914 63.1719 111.68 63.7422 110.492 63.8672H110.328C109.719 63.8672 109.117 63.6641 108.523 63.2578C107.93 62.8672 107.633 62.1719 107.633 61.1719C107.633 59.6875 108.031 58.25 108.828 56.8594C109.109 56.375 109.594 55.5547 110.281 54.3984C110.984 53.2422 111.633 52.125 112.227 51.0469C112.789 50.1875 113.367 49.1875 113.961 48.0469C114.555 46.9062 115.008 46.0938 115.32 45.6094C115.633 45.1094 115.93 44.8594 116.211 44.8594C116.492 44.8594 116.852 45.0391 117.289 45.3984C117.742 45.7422 117.969 46.1562 117.969 46.6406C117.969 47.125 116.945 49.2266 114.898 52.9453C112.852 56.6641 111.828 58.7812 111.828 59.2969C111.828 59.4219 111.891 59.4844 112.016 59.4844C112.438 59.4844 113.367 58.8906 114.805 57.7031C116.258 56.5 117.859 54.9609 119.609 53.0859C121.562 51.0078 123.094 49.1094 124.203 47.3906C124.344 47.1719 124.453 47.0078 124.531 46.8984C124.625 46.7734 124.734 46.6172 124.859 46.4297C125 46.2266 125.109 46.0703 125.188 45.9609C125.281 45.8516 125.383 45.7266 125.492 45.5859C125.617 45.4297 125.727 45.3125 125.82 45.2344C125.914 45.1562 126.016 45.0781 126.125 45C126.297 44.8438 126.484 44.7656 126.688 44.7656C126.906 44.7656 127.227 44.8125 127.648 44.9062C128.086 45 128.344 45.1016 128.422 45.2109C128.516 45.3203 128.609 45.4219 128.703 45.5156C128.859 45.6875 128.938 45.8516 128.938 46.0078C128.938 46.1484 128.875 46.3438 128.75 46.5938C128.625 46.8281 127.898 48.0625 126.57 50.2969C122.664 56.8906 119.977 61.7031 118.508 64.7344C120.883 62.7344 124.227 59.7734 128.539 55.8516C128.711 55.7109 128.883 55.6406 129.055 55.6406C129.539 55.6406 129.781 56.3828 129.781 57.8672C129.781 58.3047 129.703 58.5938 129.547 58.7344C124.875 62.3281 120.477 66.3438 116.352 70.7812ZM141.008 37.8516C140.492 38.2266 140.234 38.6484 140.234 39.1172C140.234 39.5703 140.578 39.7969 141.266 39.7969C141.562 39.7969 141.945 39.7109 142.414 39.5391H142.438C142.516 39.5391 142.555 39.7031 142.555 40.0312C142.555 40.3438 142.523 40.5312 142.461 40.5938C140.852 41.7344 139.492 42.3047 138.383 42.3047C137.273 42.3047 136.469 41.9922 135.969 41.3672C135.469 40.7422 135.219 39.9297 135.219 38.9297C135.219 37.9141 135.773 36.8438 136.883 35.7188C137.992 34.5781 139.484 33.5312 141.359 32.5781C143.234 31.6094 145.555 30.8125 148.32 30.1875C151.102 29.5625 154.219 29.25 157.672 29.25C161.141 29.25 164.039 29.9297 166.367 31.2891C168.695 32.6328 169.859 34.1719 169.859 35.9062C169.859 37.625 169.25 39.375 168.031 41.1562C166.828 42.9375 165.312 44.4922 163.484 45.8203C161.672 47.1328 159.656 48.2109 157.438 49.0547C155.219 49.8984 153.234 50.3203 151.484 50.3203C149.734 50.3203 148.375 49.6172 147.406 48.2109C145.031 51.9453 143.422 54.5 142.578 55.875C141.734 57.2344 141.016 58.3828 140.422 59.3203C139.844 60.2422 139.391 60.9688 139.062 61.5C138.75 62.0312 138.586 62.3047 138.57 62.3203C138.242 62.6797 137.891 62.8594 137.516 62.8594L136.367 63.0703L135.805 63.0234H135.406C134.484 63.0234 134.023 62.7344 134.023 62.1562C134.023 61.4219 135.562 58.6562 138.641 53.8594C141.719 49.0625 144.617 44.7109 147.336 40.8047C150.07 36.8984 151.664 34.7031 152.117 34.2188C152.57 33.7344 152.969 33.4531 153.312 33.375C153.672 33.2812 154.242 33.2344 155.023 33.2344H156.195C156.398 33.2344 156.5 33.3984 156.5 33.7266C156.5 34.0391 156.461 34.2578 156.383 34.3828C155.008 36.3047 152.523 40.1016 148.93 45.7734C149.055 46.0234 149.258 46.1797 149.539 46.2422C149.836 46.3047 150.148 46.3359 150.477 46.3359H151.156C152.594 46.3359 154.148 45.9922 155.82 45.3047C157.492 44.6016 158.961 43.7656 160.227 42.7969C161.492 41.8281 162.547 40.8203 163.391 39.7734C164.25 38.7109 164.68 37.8047 164.68 37.0547C164.68 36.3047 164.445 35.6328 163.977 35.0391C163.508 34.4453 162.867 33.9766 162.055 33.6328C160.461 32.9609 158.523 32.625 156.242 32.625C153.977 32.625 151.234 33.2188 148.016 34.4062C144.812 35.5781 142.477 36.7266 141.008 37.8516ZM178.766 45.4688C178.766 46.5 178.344 47.4062 177.5 48.1875C176.672 48.9688 175.727 49.3594 174.664 49.3594C174.32 49.3594 174.094 49.2812 173.984 49.125C173.875 48.9531 173.82 48.7344 173.82 48.4688C173.82 48.2031 173.852 47.9453 173.914 47.6953C173.352 47.8828 172.727 48.1719 172.039 48.5625C171.352 48.9531 170.508 49.5312 169.508 50.2969C168.508 51.0625 168.008 51.6328 168.008 52.0078C168.008 52.1328 168.188 52.1953 168.547 52.1953C168.922 52.1953 169.492 52.0703 170.258 51.8203C171.023 51.5547 171.555 51.4219 171.852 51.4219C172.164 51.4219 172.367 51.4375 172.461 51.4688C172.664 51.5781 172.883 51.8203 173.117 52.1953C173.352 52.5547 173.469 52.8438 173.469 53.0625C173.469 53.2656 173.266 53.5391 172.859 53.8828C172.453 54.2266 171.992 54.4922 171.477 54.6797C170.961 54.8516 170.617 54.9844 170.445 55.0781C167.148 56.9219 165.5 58.1875 165.5 58.875C165.5 60.0938 166.539 60.7031 168.617 60.7031C169.945 60.7031 171.281 60.2812 172.625 59.4375C173.766 58.7188 174.789 57.9922 175.695 57.2578C176.617 56.5078 177.195 56.0469 177.43 55.875C177.68 55.7031 177.867 55.6172 177.992 55.6172C178.398 55.6172 178.602 56.0703 178.602 56.9766C178.602 57.8828 178.547 58.4844 178.438 58.7812C178.328 59.0625 178.016 59.4141 177.5 59.8359C174.156 62.5547 170.992 63.9141 168.008 63.9141C166.414 63.9141 165.141 63.6953 164.188 63.2578C162.438 62.4609 161.562 61.2422 161.562 59.6016C161.562 57.4453 163.055 55.8125 166.039 54.7031C165.445 54.4375 165.062 54.1016 164.891 53.6953C164.719 53.2734 164.633 52.6094 164.633 51.7031C164.633 50.7812 165.055 49.8125 165.898 48.7969C166.758 47.7656 167.805 46.9219 169.039 46.2656C171.789 44.7812 174.242 44.0391 176.398 44.0391C176.914 44.0391 177.438 44.1641 177.969 44.4141C178.5 44.6641 178.766 45.0156 178.766 45.4688ZM197.305 27.8203C198.055 27.8203 198.711 28.0469 199.273 28.5C199.852 28.9375 200.141 29.5938 200.141 30.4688C200.141 31.3438 199.656 32.7188 198.688 34.5938C197.719 36.4531 196.555 38.3594 195.195 40.3125C193.836 42.25 192.297 44.3125 190.578 46.5C187.859 49.9688 185.25 53.0859 182.75 55.8516C182.734 56.0391 182.664 56.3906 182.539 56.9062C182.43 57.4062 182.375 57.9141 182.375 58.4297C182.375 58.9453 182.609 59.4141 183.078 59.8359C183.562 60.2422 184.156 60.4453 184.859 60.4453C185.562 60.4453 186.312 60.1953 187.109 59.6953C187.922 59.1953 188.625 58.6406 189.219 58.0312C190.781 56.4219 191.75 55.6172 192.125 55.6172C192.5 55.6172 192.688 56.1875 192.688 57.3281V57.7969C192.688 58.4062 192.578 58.8516 192.359 59.1328C191.047 60.7422 189.57 61.9453 187.93 62.7422C186.289 63.5234 184.734 63.9141 183.266 63.9141C181.797 63.9141 180.68 63.4688 179.914 62.5781C179.148 61.6719 178.766 60.4375 178.766 58.875C178.766 55.8281 179.578 52.25 181.203 48.1406C182.844 44.0156 184.688 40.5078 186.734 37.6172C191.344 31.0859 194.867 27.8203 197.305 27.8203ZM196.25 31.7109C196.25 31.4766 196.172 31.3594 196.016 31.3594C195.469 31.3594 194.031 32.9219 191.703 36.0469C189.375 39.1719 187.688 41.6641 186.641 43.5234C185.609 45.3828 184.633 47.7188 183.711 50.5312C185.555 48.3438 188.102 44.9375 191.352 40.3125C194.617 35.6719 196.25 32.8047 196.25 31.7109ZM205.508 37.2656C205.508 38.1562 205.094 39.0547 204.266 39.9609C203.438 40.8516 202.57 41.2969 201.664 41.2969C200.773 41.2969 200.328 40.8281 200.328 39.8906C200.328 38.9531 200.719 38.0625 201.5 37.2188C202.297 36.3594 203.172 35.9297 204.125 35.9297C204.547 35.9297 204.883 36.0469 205.133 36.2812C205.383 36.5156 205.508 36.8438 205.508 37.2656ZM201.711 57.7266C201.711 58.1953 201.664 58.5312 201.57 58.7344C200.805 60.2969 199.586 61.5625 197.914 62.5312C196.242 63.4844 194.789 63.9609 193.555 63.9609C192.32 63.9609 191.258 63.5469 190.367 62.7188C189.477 61.8906 189.031 61.0469 189.031 60.1875C189.031 59.3281 189.461 58.0781 190.32 56.4375C191.18 54.7969 192.039 53.2812 192.898 51.8906C193.758 50.5 194.188 49.75 194.188 49.6406C194.188 49.5156 194.023 49.2812 193.695 48.9375C193.383 48.5938 193.227 48.3438 193.227 48.1875C193.227 48.0156 193.547 47.5859 194.188 46.8984C194.844 46.1953 195.633 45.5078 196.555 44.8359C197.492 44.1484 198.203 43.8047 198.688 43.8047C199.188 43.8047 199.633 44.0234 200.023 44.4609C200.414 44.8984 200.609 45.2969 200.609 45.6562C200.609 46.0156 198.75 49.3984 195.031 55.8047C194.984 55.8984 194.852 56.1094 194.633 56.4375C194.43 56.75 194.266 57.0156 194.141 57.2344C194.031 57.4375 193.898 57.6875 193.742 57.9844C193.43 58.6094 193.273 59.1328 193.273 59.5547C193.273 60.0859 193.633 60.3516 194.352 60.3516C195.07 60.3516 195.812 60.1094 196.578 59.625C197.359 59.125 198.031 58.5781 198.594 57.9844C200.062 56.4062 200.898 55.6172 201.102 55.6172C201.508 55.6172 201.711 56.3203 201.711 57.7266ZM215.234 57.7969C216.047 57.2812 216.57 56.9297 216.805 56.7422C217.039 56.5391 217.312 56.3047 217.625 56.0391C217.938 55.7734 218.195 55.6406 218.398 55.6406C218.711 55.6406 218.867 56 218.867 56.7188C218.867 57.4219 218.516 58.1875 217.812 59.0156C217.125 59.8281 216.266 60.5234 215.234 61.1016C214.203 61.6641 213.102 62.1562 211.93 62.5781C209.602 63.4375 207.617 63.8672 205.977 63.8672C204.352 63.8672 202.883 63.3359 201.57 62.2734C200.258 61.1953 199.602 59.7969 199.602 58.0781C199.602 56.3438 200.031 54.6172 200.891 52.8984C201.75 51.1641 202.852 49.6484 204.195 48.3516C205.555 47.0391 207.125 45.9766 208.906 45.1641C210.703 44.3516 212.477 43.9453 214.227 43.9453C215.07 43.9453 215.828 44.1875 216.5 44.6719C217.172 45.1562 217.508 45.8203 217.508 46.6641C217.508 47.5078 217.086 48.5234 216.242 49.7109C215.414 50.8828 214.57 51.4688 213.711 51.4688C212.711 51.4688 212.211 50.9922 212.211 50.0391C212.211 49.7891 212.445 49.3438 212.914 48.7031C213.383 48.0625 213.617 47.6328 213.617 47.4141C213.617 47.1797 213.531 47.0625 213.359 47.0625C212.5 47.0625 211.578 47.3594 210.594 47.9531C209.609 48.5469 208.711 49.1719 207.898 49.8281C207.102 50.4844 206.344 51.2188 205.625 52.0312C204.062 53.7969 203.281 55.6328 203.281 57.5391C203.281 58.3047 203.523 58.9688 204.008 59.5312C204.508 60.0781 205.336 60.3516 206.492 60.3516C207.664 60.3516 208.836 60.2188 210.008 59.9531C211.18 59.6719 212.141 59.375 212.891 59.0625C213.656 58.7344 214.438 58.3125 215.234 57.7969ZM235.414 45.1875C236.602 45.1875 237.195 45.5938 237.195 46.4062C237.195 46.8438 237.094 47.1641 236.891 47.3672C236.688 47.5703 236.25 48.25 235.578 49.4062C234.922 50.5469 234.188 52.0156 233.375 53.8125C232.578 55.5938 232.062 57.1172 231.828 58.3828C231.781 58.5391 231.758 58.7578 231.758 59.0391C231.758 59.8984 231.992 60.3281 232.461 60.3281C232.93 60.3281 233.484 60.1094 234.125 59.6719C234.766 59.2188 235.336 58.7422 235.836 58.2422C236.336 57.7266 236.82 57.2031 237.289 56.6719C237.773 56.1406 238.062 55.8359 238.156 55.7578C238.25 55.6797 238.391 55.6406 238.578 55.6406C238.875 55.6406 239.055 55.8672 239.117 56.3203C239.18 56.7734 239.211 57.2422 239.211 57.7266C239.211 58.2109 239.164 58.5469 239.07 58.7344C238.617 59.625 237.617 60.6953 236.07 61.9453C234.539 63.1953 233.141 63.8203 231.875 63.8203C230.625 63.8203 229.703 63.4375 229.109 62.6719C228.516 61.9062 228.219 61.0625 228.219 60.1406C228.219 59.2031 228.375 58.3828 228.688 57.6797C227.391 59.3672 225.898 60.7969 224.211 61.9688C222.539 63.1406 221.172 63.7266 220.109 63.7266C219.047 63.7266 218.18 63.4062 217.508 62.7656C216.648 61.9688 216.219 60.8672 216.219 59.4609C216.219 58.0391 216.531 56.6172 217.156 55.1953C217.797 53.7578 218.633 52.4531 219.664 51.2812C220.695 50.0938 221.828 49.0156 223.062 48.0469C225.656 46.0156 228.047 45 230.234 45C231.078 45 231.766 45.1406 232.297 45.4219C232.828 45.7031 233.164 46.0547 233.305 46.4766C233.68 45.9141 233.992 45.5625 234.242 45.4219C234.508 45.2656 234.898 45.1875 235.414 45.1875ZM232.297 47.7891C229.625 47.7891 226.859 49.2734 224 52.2422C222.984 53.3047 222.047 54.5781 221.188 56.0625C220.344 57.5469 219.922 58.5625 219.922 59.1094C219.922 59.6562 220.078 59.9297 220.391 59.9297C220.828 59.9297 222.047 59.0703 224.047 57.3516C226.047 55.6172 227.375 54.3438 228.031 53.5312C228.75 52.625 230.172 50.7109 232.297 47.7891ZM249.312 59.3906C249.312 60.0781 249.781 60.4219 250.719 60.4219C251.219 60.4219 251.844 60.1719 252.594 59.6719C253.359 59.1719 254.047 58.625 254.656 58.0312C256.281 56.4219 257.203 55.6172 257.422 55.6172C257.828 55.6172 258.031 56.2031 258.031 57.375C258.031 58.5469 257.664 59.3516 256.93 59.7891C254.695 61.8047 252.969 63.0312 251.75 63.4688C251.062 63.7031 250.305 63.8125 249.477 63.7969C248.648 63.7812 247.828 63.4219 247.016 62.7188C246.203 62.0156 245.797 61.1641 245.797 60.1641C245.797 59.1484 246.062 58 246.594 56.7188C247.125 55.4375 247.664 54.3438 248.211 53.4375C248.773 52.5156 249.461 51.4531 250.273 50.25C251.086 49.0312 251.516 48.2734 251.562 47.9766L251.516 47.9297C251 47.9766 249.719 48.9922 247.672 50.9766C245.641 52.9609 243.961 54.6875 242.633 56.1562C241.305 57.625 239.719 59.5859 237.875 62.0391C237.359 62.7109 236.938 63.0469 236.609 63.0469C236.281 63.0469 235.844 62.9453 235.297 62.7422C234.734 62.5234 234.391 62.3672 234.266 62.2734C234.141 62.1797 234.078 62.0391 234.078 61.8516C234.078 61.6641 234.133 61.4375 234.242 61.1719C234.352 60.8906 234.461 60.6641 234.57 60.4922C234.664 60.3047 234.828 60.0234 235.062 59.6484C235.297 59.2734 235.758 58.4844 236.445 57.2812C237.148 56.0625 238.219 54.25 239.656 51.8438C241.094 49.4375 241.953 47.9844 242.234 47.4844C242.828 46.4531 243.312 45.7031 243.688 45.2344C244.391 44.3438 245.578 43.8984 247.25 43.8984C247.625 43.8984 247.812 44.1328 247.812 44.6016C247.812 45.3359 247.133 46.7188 245.773 48.75L244.789 50.2266C247.492 47.2266 249.773 45.3281 251.633 44.5312C252.539 44.1406 253.352 43.9453 254.07 43.9453C254.805 43.9453 255.383 44.1406 255.805 44.5312C256.242 44.9219 256.461 45.3594 256.461 45.8438C256.461 46.3125 256.297 46.8828 255.969 47.5547C255.641 48.2109 255.305 48.8047 254.961 49.3359C254.633 49.8516 254.195 50.5078 253.648 51.3047C253.102 52.1016 252.805 52.5391 252.758 52.6172C252.711 52.6797 252.586 52.8672 252.383 53.1797C252.195 53.4766 252.055 53.6953 251.961 53.8359C251.867 53.9766 251.711 54.2266 251.492 54.5859C251.273 54.9297 251.094 55.2188 250.953 55.4531C250.828 55.6875 250.664 55.9766 250.461 56.3203C250.273 56.6641 250.117 56.9609 249.992 57.2109C249.883 57.4609 249.766 57.7344 249.641 58.0312C249.422 58.5781 249.312 59.0312 249.312 59.3906Z" fill="black" fill-opacity="0.82"/>
<path d="M72.0964 7.37H66.9064V6.5H78.2164V7.37H73.0864V29H72.0964V7.37ZM80.7347 6.5H81.6947V18.29C82.1147 17.39 82.8247 16.65 83.8247 16.07C84.8447 15.47 85.8747 15.17 86.9147 15.17C88.8147 15.17 90.2747 15.69 91.2947 16.73C92.3347 17.77 92.8547 19.24 92.8547 21.14V29H91.8947V21.14C91.8947 19.5 91.4547 18.24 90.5747 17.36C89.7147 16.46 88.4947 16.01 86.9147 16.01C85.9547 16.01 85.0747 16.24 84.2747 16.7C83.4747 17.14 82.8447 17.76 82.3847 18.56C81.9247 19.34 81.6947 20.2 81.6947 21.14V29H80.7347V6.5ZM103.213 28.52C104.253 28.52 105.243 28.25 106.183 27.71C107.123 27.17 107.903 26.43 108.523 25.49V27.02C107.783 27.84 106.973 28.44 106.093 28.82C105.213 29.18 104.213 29.36 103.093 29.36C101.853 29.36 100.683 29.03 99.5829 28.37C98.5029 27.71 97.6329 26.83 96.9729 25.73C96.3329 24.63 96.0129 23.46 96.0129 22.22C96.0129 20.88 96.3329 19.68 96.9729 18.62C97.6129 17.54 98.4829 16.7 99.5829 16.1C100.703 15.5 101.943 15.2 103.303 15.2C105.383 15.2 107.153 16.02 108.613 17.66L99.1929 26.96C99.8529 27.5 100.493 27.9 101.113 28.16C101.733 28.4 102.433 28.52 103.213 28.52ZM96.9729 22.13C96.9729 23.79 97.5229 25.21 98.6229 26.39L107.413 17.66C106.753 17.08 106.113 16.67 105.493 16.43C104.873 16.17 104.133 16.04 103.273 16.04C102.053 16.04 100.963 16.31 100.003 16.85C99.0629 17.37 98.3229 18.09 97.7829 19.01C97.2429 19.93 96.9729 20.97 96.9729 22.13Z" fill="black" fill-opacity="0.82"/>
</svg>
