<svg width="32" height="32" viewBox="0 0 32 32" fill="none" xmlns="http://www.w3.org/2000/svg">
<path fill-rule="evenodd" clip-rule="evenodd" d="M16 0C7.16344 0 0 7.16344 0 16C0 24.8366 7.16344 32 16 32C24.8366 32 32 24.8366 32 16C32 7.16344 24.8366 0 16 0ZM16.3977 14.1839C16.339 12.8324 15.9321 6.8148 15.8843 6.53603C15.8157 6.28341 15.6182 6.10298 15.3349 6.0317C14.4643 5.81608 11.137 6.74804 10.5208 7.38408C10.3223 7.59068 10.2492 7.8451 10.3088 8.07065C10.4062 8.27003 14.5283 14.7559 14.5283 14.7559C15.1373 15.7438 15.6344 15.5904 15.7977 15.539C15.9592 15.4893 16.4536 15.336 16.3977 14.1839ZM23.497 16.0415C23.3625 16.1299 23.2308 16.1732 19.8205 16.9996C19.2738 17.1295 18.9734 17.2035 18.8056 17.2666C18.8092 17.2621 18.8227 17.2378 18.8227 17.2378C18.4817 17.3325 18.11 17.1683 17.8899 16.8318C17.6769 16.507 17.6805 16.1281 17.898 15.8637C17.9079 15.8529 18.7325 14.7297 18.7325 14.7297C20.5585 12.2324 20.6551 12.1025 20.7868 12.0168C20.9997 11.8742 21.2559 11.8661 21.5121 11.9888C22.2348 12.3425 23.7017 14.5204 23.7893 15.3576C23.7905 15.3643 23.7901 15.371 23.7896 15.3774V15.3774C23.7895 15.3792 23.7894 15.3811 23.7893 15.3829C23.7893 15.3841 23.7893 15.3853 23.7893 15.3865C23.8073 15.6697 23.7036 15.9025 23.497 16.0415ZM8.70558 18.877C8.59281 17.789 8.72994 16.1497 9.05473 15.6292C9.209 15.3883 9.43004 15.2629 9.67904 15.2728C9.84144 15.2746 9.98669 15.3269 13.2129 16.6576C13.2147 16.6576 14.1557 17.0411 14.1557 17.0411C14.4967 17.1692 14.7033 17.5228 14.6817 17.9234C14.66 18.3141 14.4363 18.6199 14.1034 18.7047C14.098 18.7074 12.7636 19.1333 12.7636 19.1333C9.76114 20.0986 9.6619 20.1257 9.50221 20.1175C9.25321 20.1085 9.03488 19.9615 8.90497 19.7143C8.81024 19.5356 8.74528 19.2361 8.70558 18.877ZM16.3399 22.1349C16.3309 25.2889 16.3245 25.3927 16.2722 25.5442C16.1865 25.7788 15.9835 25.9358 15.7047 25.9863C14.9018 26.1234 12.3883 25.1987 11.8641 24.5762C11.7586 24.4463 11.6945 24.3073 11.681 24.1666C11.6702 24.0683 11.6837 23.969 11.7171 23.877C11.7721 23.72 11.8668 23.5973 14.1268 20.9422C14.1286 20.9422 14.7872 20.1609 14.7872 20.1609C15.0128 19.8803 15.4142 19.7919 15.7868 19.9353C16.1486 20.0743 16.3697 20.3855 16.348 20.7275C16.3471 20.741 16.3399 22.1349 16.3399 22.1349ZM21.3714 24.4463C22.1292 24.144 23.782 22.041 23.8984 21.2318C23.939 20.9503 23.8506 20.7076 23.6566 20.5524C23.5294 20.4568 23.4329 20.4198 20.4322 19.4346C20.4322 19.4346 19.1159 18.9998 19.0988 18.9916C18.7803 18.868 18.4167 18.9826 18.1722 19.284C17.9178 19.5934 17.8799 20.0021 18.0829 20.3106L18.6125 21.1731C20.3934 24.0655 20.5296 24.2703 20.6577 24.3705C20.8562 24.5266 21.1088 24.5518 21.3714 24.4463Z" fill="black" fill-opacity="0.7"/>
</svg>
